PathFileType	4	(X/Y/Z)	Patient4_TMGait_0pt5_01_left_04.trc.trc
DataRate	CameraRate	NumFrames	NumMarkers	Units	OrigDataRate	OrigDataStartFrame	OrigNumFrames
73.298429319372	73.298429319372	5	33	mm	73.298429319372	124	       141
Frame#	Time	L.ASIS			Sacral			L.Shoulder			Chest			R.Shoulder			Neck			R.ASIS			R.Thigh.Superior			R.Thigh.Lateral			R.Thigh.Inferior			R.Patella			L.Thigh.Superior			L.Thigh.Lateral			L.Thigh.Inferior			L.Patella			L.Shank.Superior			L.Shank.Lateral			L.Shank.Inferior			R.Shank.Superior			R.Shank.Lateral			R.Shank.Inferior			R.Heel			R.Midfoot.Superior			R.Midfoot.Lateral			R.Toe			L.Heel			L.Midfoot.Lateral			L.Midfoot.Superior			L.Toe			L.Elbow			L.Wrist			R.Elbow			R.Wrist			
		X1	Y1	Z1	X2	Y2	Z2	X3	Y3	Z3	X4	Y4	Z4	X5	Y5	Z5	X6	Y6	Z6	X7	Y7	Z7	X8	Y8	Z8	X9	Y9	Z9	X10	Y10	Z10	X11	Y11	Z11	X12	Y12	Z12	X13	Y13	Z13	X14	Y14	Z14	X15	Y15	Z15	X16	Y16	Z16	X17	Y17	Z17	X18	Y18	Z18	X19	Y19	Z19	X20	Y20	Z20	X21	Y21	Z21	X22	Y22	Z22	X23	Y23	Z23	X24	Y24	Z24	X25	Y25	Z25	X26	Y26	Z26	X27	Y27	Z27	X28	Y28	Z28	X29	Y29	Z29	X30	Y30	Z30	X31	Y31	Z31	X32	Y32	Z32	X33	Y33	Z33	

124	6.908071428571	713.097019324947	952.879652777405	365.969197855622	511.606522836672	997.508919607723	540.993459725631	660.254960521768	1429.676789158776	350.790886735517	778.492166991238	1358.922828405389	500.070137932845	710.729254853518	1429.412881804862	682.838756481795	674.454967743682	1488.271842871158	502.536450287361	747.795918434899	934.401576686462	640.281461438319	749.601157292807	722.587449170427	611.256711576398	648.617315850341	626.735303140746	673.528746657870	707.415329846966	562.144500360905	591.446403785655	687.673048227581	474.882752832388	594.102553244018	788.960023020756	762.658055546629	394.250223875191	728.600597337407	635.622393297356	323.409300859459	829.877188063955	574.851662196216	383.754412659442	852.076267057570	510.275624196698	384.943304757369	839.479237296497	438.777927201962	373.362588821389	778.986624360149	308.004083447303	319.216599642934	865.962936906358	211.180735832790	377.321113266817	647.683529792007	391.691459596165	600.771919095498	563.191012845709	298.974640440453	662.231688813265	588.193766317043	200.051406027264	596.922050396259	434.073736563342	44.757587550233	564.463539690942	605.050540699801	96.039279952789	604.748561067343	515.317496053458	35.979960158103	640.282082752322	723.576901172327	39.703532738746	635.954395563746	779.547293783856	37.803279377358	410.962546433656	856.992474650690	39.741958895624	333.878230214416	931.159426086517	110.677201677690	358.994230133089	1063.654692858288	73.553864402945	338.686510284869	565.910474694486	1086.814459158822	242.407248720491	598.225324843332	830.607836274352	209.172139499858	823.844861716747	1106.516460722717	795.025447397949	1070.508859029842	1129.695560466552	740.924784156473	
125	6.921714285714	715.379960230100	951.599867033846	364.458389273589	512.673767819102	996.435147774758	538.063568210211	660.582102720845	1428.273145272739	347.811602860133	778.684516998672	1358.332065832107	497.635569464527	709.948678795676	1428.911243643898	680.045929575755	674.121731163038	1487.329988554515	499.457379223855	748.777890397454	933.437854996154	638.908521971835	749.709536063547	721.298495931869	610.318440341614	647.676915916573	626.062921949995	672.163558312980	706.444236793504	560.907822266354	590.479217631437	685.843204869216	473.333127810225	592.939121131577	790.982126260120	760.991040845067	393.500698047759	729.952438803563	634.227243598582	322.906936633571	830.769187531405	573.327714574390	383.803655074638	851.745669230558	507.765940142565	385.314394364456	838.717287990246	435.951114821369	373.601282329349	776.344009102628	306.015453575233	319.424304975110	861.337380915267	207.867578070059	378.267818895741	644.848676151045	390.666014779390	599.867896278957	559.179821544748	299.093203099512	661.707506870501	582.873048446724	199.683479525212	596.565045620373	427.251452624846	45.276740190552	564.619636599874	598.384842418192	96.063759077096	604.765851383347	508.529296184602	36.151706921058	640.347276337834	716.817388812452	39.473969877523	636.054242771970	770.797569407185	37.146981604297	411.431839387823	848.502325542181	37.722233719362	334.432204236187	924.716626768620	106.199077255133	360.650116209637	1056.503253784485	65.287673687282	340.322804737689	565.461196786496	1085.640721337901	239.728563524386	597.606879558003	829.336969762215	206.932426238979	822.821202803880	1105.681586687457	792.563008246482	1069.508973853194	1127.663037294604	737.318998488669	
126	6.935357142857	717.563837863975	950.656248639933	362.785838226284	513.741666094739	995.626240898340	535.074062346901	661.029159778518	1427.059943663306	344.732516722381	779.007959699325	1357.919142475534	495.093402359174	709.339969837107	1428.672144930304	677.126859990836	673.988060371390	1486.609440801268	496.226172162410	749.753426602848	932.611933776977	637.307951794102	749.920689016682	720.166770212337	609.108285261201	646.960051447195	625.495272057263	670.576334481486	705.745720484567	559.799523679928	589.284395970007	684.374814336008	471.819824486303	591.640659295195	792.857394414954	759.712826546839	392.755929076245	731.476073531056	633.381538065289	322.178318471556	831.657252123775	572.263365997528	383.856294885520	851.396911764120	505.726998602340	385.545707067184	838.015334348095	433.643400951850	373.591284889334	773.998184680310	304.503111287237	319.292337921978	857.027793716258	205.168693111747	378.973283827167	642.270940588237	389.737659902473	598.833287493189	555.342156759255	299.407890891794	661.051038204764	577.705937147080	199.477307583001	596.159492429606	420.472746031379	46.109293515014	564.792711492014	591.846560628296	96.165490243668	604.786597800153	501.792635926039	36.500585912245	640.414714785085	710.122223521176	39.210695576670	636.160075580518	762.698881315401	36.746766179185	411.720099512671	840.641858076306	36.249855018675	334.811541189912	918.520754775494	102.633725798745	362.058779545111	1049.692172237899	58.588890332308	341.770149179410	565.638689911117	1084.506758126818	236.893852939135	597.608454242345	828.081617254775	204.682996876679	821.229695146250	1104.900254941708	790.316658812034	1068.139590797798	1124.296810946939	734.078983412221	
127	6.949000000000	719.574782681182	950.118022703666	360.918517733242	514.780550848430	995.155511050716	532.067384060947	661.582328668302	1426.118807607646	341.593173930669	779.459335533428	1357.727232100306	492.452896860780	708.963140270991	1428.760083048170	674.104200315760	674.073843657807	1486.172787290557	492.886361656661	750.675272687431	932.001667977892	635.461475825630	750.203762798364	719.267767774370	607.606372194308	646.491722307617	625.079252153238	668.779216923946	705.366226734488	558.879595230868	587.870495946381	683.362349637247	470.374156598523	590.259977801949	794.574076372906	758.965232698426	391.953444546991	733.140221981587	633.130146008187	321.224910662670	832.557691689149	571.724068635877	383.799973031524	851.062533038617	504.227488792921	385.561701191972	837.364719730440	431.902862051457	373.318727910868	771.901047907941	303.529775774455	318.811632799492	852.968593456310	203.128969276054	379.410636475742	640.009427531656	388.946016436126	597.697027736046	551.724877492306	299.976100579073	660.270064328040	572.744059625618	199.490768788395	595.724136677009	413.765269160239	47.361236383242	564.977688666994	585.484267275862	96.370890602430	604.822392754304	495.124936710012	37.090439360184	640.480958571923	703.493478464445	38.910682638523	636.266076794539	755.242665591798	36.573173960208	411.850974727248	833.380712886158	35.296637845037	335.019295755399	912.509310436723	100.032477809258	363.145767371973	1043.183617350001	53.599347286029	342.924784043706	566.456200462312	1083.491289480326	233.931192274243	598.238994717127	826.922619058074	202.438218653293	819.078939645661	1104.247730301890	788.279850813141	1066.349856114670	1119.574150023913	731.201236559317	
128	6.962642857143	721.367570237999	950.017499581265	358.832291953378	515.770199891331	995.066528988547	529.067280257089	662.223282607971	1425.510266968591	338.427047875130	780.025779720460	1357.783378168431	489.723925871749	708.854410002525	1429.213008822148	671.000213240479	674.378165010003	1486.059828883849	489.482003715175	751.504565729215	931.670283011428	633.365831408804	750.547794416275	718.664669479426	605.819790564515	646.310534948573	624.848135118085	666.799166324969	705.373901851969	558.195932902339	586.266480179974	682.918729974684	469.018680555896	588.868815092167	796.133524734743	758.818237396095	391.025757565314	734.869065272099	633.444290237951	320.061413261774	833.439025203068	571.682832825933	383.525020015157	850.721777218667	503.254708373227	385.317393509985	836.701953571738	430.703700793490	372.807055819014	769.938887545481	303.085106123959	318.017822597952	849.030413016362	201.715372769050	379.594773080148	638.143009560595	388.318727618707	596.500776094431	548.392581722266	300.847545475437	659.381695357443	568.049448453135	199.775693036669	595.282245503570	407.165953145682	49.143231471705	565.164687353098	579.347569371692	96.704419078527	604.883815980510	488.545342320967	37.990526498878	640.540593570590	696.924767233879	38.575893191372	636.365675757398	748.316902708950	36.571665477011	411.854286402995	826.596816928975	34.783027245625	335.074666289898	906.573395065349	98.336646368266	363.888920268723	1036.879309882399	50.261659529719	343.741696327511	567.889053337299	1082.662561292634	230.868102653822	599.514077817401	825.936947117110	200.207050282925	816.373918449977	1103.785745620282	786.432898815360	1064.048686598612	1113.485616401504	728.675125619469	
